<svg width="24" height="24" viewBox="0 0 24 24" fill="none" xmlns="http://www.w3.org/2000/svg">
    <path d="M20.998 3V5C20.998 6.85652 20.2605 8.63699 18.9477 9.94975C17.635 11.2625 15.8545 12 13.998 12H12.998V13H17.998V20C17.998 20.5304 17.7873 21.0391 17.4122 21.4142C17.0371 21.7893 16.5284 22 15.998 22H7.99799C7.46755 22 6.95884 21.7893 6.58377 21.4142C6.2087 21.0391 5.99799 20.5304 5.99799 20V13H10.998V10C10.998 8.14349 11.7355 6.36301 13.0482 5.05025C14.361 3.7375 16.1415 3 17.998 3H20.998ZM5.49799 2C6.69796 1.99903 7.8806 2.28639 8.94634 2.83788C10.0121 3.38937 10.9297 4.18885 11.622 5.169C10.5659 6.5579 9.99537 8.25523 9.99799 10V11H9.49799C7.50886 11 5.60121 10.2098 4.19468 8.8033C2.78816 7.39678 1.99799 5.48913 1.99799 3.5V2H5.49799Z" fill="#2A6C4E"/>
</svg>
